<?xml version="1.0" encoding="utf-8"?>
<!-- Generator: Adobe Illustrator 16.0.4, SVG Export Plug-In . SVG Version: 6.00 Build 0)  -->
<!DOCTYPE svg PUBLIC "-//W3C//DTD SVG 1.1//EN" "http://www.w3.org/Graphics/SVG/1.1/DTD/svg11.dtd">
<svg version="1.1" id="Layer_1" xmlns="http://www.w3.org/2000/svg" xmlns:xlink="http://www.w3.org/1999/xlink" x="0px" y="0px"
	 width="256px" height="256px" viewBox="0 0 256 256" enable-background="new 0 0 256 256" xml:space="preserve">
<g id="_x36_">
	<path d="M243.271,67.943L109.985,2.014c-8.801-4.411-13.927-1.479-13.927,7.826c0,0.003,0,18.258,0,20.951
		c0,5.316-1.604,6.223-5.808,4.214l-13.737-6.511c-6.917-3.397-12.301-1.483-12.511,7.47c0.024,3.357,0.06,13.195,0.06,21.94
		c0,2.999-0.117,6.934-5.812,4.351l-13.337-6.597c-8.975-4.367-12.886-0.852-12.886,8.113c0,0.002,0,17.535,0,22.476
		c0,2.421-1.081,5.649-6.11,3.258l-13.134-6.516C3.814,78.599,0,81.774,0,91.744c0,0,0,52.664,0,96.462
		c0,9.968,1.742,13.326,12.176,18.582l6.938,3.537C23.31,212.36,32,213.625,32,202.187c0,0,0-38.804,0-42.187
		c0-9.789,3.842-10.89,13.249-6.721c0,0,17.699,8.057,23.32,10.721c7.844,3.715,11.426,5.733,11.431,20v44
		c0,12.734,7.604,15.983,16,20.285l7.182,3.339c12.142,5.557,18.675,6.1,32.604,0.02l106.788-52.376
		c9.664-4.849,13.426-6.523,13.426-17.307V86.28C256,76.07,252.691,72.625,243.271,67.943z M163.922,200.654
		c-0.53,7.114-1.399,12.689-12.479,17.15c-6.274,2.527-11.476,1.93-10.79-8.584c0.467-7.123,0.988-12.408,12.475-17.16
		C163.589,187.734,164.314,193.598,163.922,200.654z M163.922,167.021c-0.532,7.113-1.4,12.688-12.481,17.148
		c-6.272,2.527-11.476,1.929-10.788-8.583c0.471-7.124,0.987-12.41,12.472-17.161C163.593,154.102,164.314,159.963,163.922,167.021z
		 M200.105,182.209c-0.531,7.113-1.403,12.688-12.48,17.148c-6.27,2.526-11.477,1.927-10.787-8.584
		c0.469-7.125,0.986-12.41,12.472-17.16C199.775,169.284,200.5,175.148,200.105,182.209z M200.361,149.176
		c-0.536,7.113-1.404,12.688-12.485,17.15c-6.273,2.525-11.474,1.928-10.787-8.587c0.464-7.124,0.988-12.408,12.475-17.159
		C200.029,136.252,200.754,142.115,200.361,149.176z M235.041,165.527c-0.53,7.112-1.399,12.688-12.48,17.148
		c-6.271,2.525-11.479,1.927-10.787-8.585c0.464-7.126,0.988-12.409,12.474-17.158C234.71,152.602,235.438,158.467,235.041,165.527z
		 M235.042,132.525c-0.534,7.112-1.402,12.688-12.482,17.151c-6.271,2.524-11.477,1.926-10.784-8.587
		c0.463-7.121,0.987-12.409,12.468-17.158C234.711,119.604,235.436,125.465,235.042,132.525z"/>
</g>
</svg>
